<svg xmlns="http://www.w3.org/2000/svg" viewBox="0 0 1445.1 970.53"><defs><style>.cls-1{fill:#f2f6f6;}</style></defs><g id="Layer_2" data-name="Layer 2"><g id="Capa_1" data-name="Capa 1"><path class="cls-1" d="M814.29,837.9C752.07,898.56,671.85,941,586.13,959.75c-85.82,18.36-177.06,13.39-260.57-15.9C241.94,914.92,166.9,862,110.43,793.56S17.15,640.61,4.67,552.67A491.61,491.61,0,0,1,39.62,291.89C75,210.48,132.78,139.06,205.1,88.18c17.89-13,37-24.11,56.48-34.5a496.17,496.17,0,0,1,60.61-26.41c41.65-14.34,85-23.78,128.88-26.33a483,483,0,0,1,130.59,9.47,465.18,465.18,0,0,1,62.87,17.85A489.21,489.21,0,0,1,704,54.82a487.91,487.91,0,0,0-60.62-23.26,469.09,469.09,0,0,0-62.91-15.15A474.18,474.18,0,0,0,452,12.2C409.26,16,367.34,26.38,327.42,41.44a523.36,523.36,0,0,0-58,26.92c-18.57,10.43-36.81,21.53-53.78,34.4C147.26,153.43,92.37,222.12,59.69,300.46c-32.86,78.12-44.32,165.14-32.21,249A467.83,467.83,0,0,0,127.3,779.82c26.69,32.91,57.56,62.62,92.16,87.26,8.49,6.4,17.54,12,26.42,17.8,4.51,2.81,9.15,5.38,13.72,8.09l6.88,4,7,3.72C292.14,911,311.78,919.31,331.62,927c10,3.5,20,7.2,30.32,10,10.15,3.24,20.56,5.54,30.91,8.07,20.85,4.36,41.92,8,63.22,9.61,42.55,3.93,85.67,1.6,127.86-5.93a501.64,501.64,0,0,0,62.44-15.6,521.85,521.85,0,0,0,59.89-24,503,503,0,0,0,108-71.2Z"/><path class="cls-1" d="M571.19,252.51v-9.77H444.87a220.66,220.66,0,0,0-24.24,1.57,183,183,0,0,0-35.35,7.79A127.85,127.85,0,0,0,352.71,268a88.86,88.86,0,0,0-25.21,26.2,64.69,64.69,0,0,0-8,18.2,31.48,31.48,0,0,0,.31,18.14q2.82,8.63,12.55,14.82a32.57,32.57,0,0,0,14.37,5.23,29.5,29.5,0,0,0,12-.89c3.2-1.06,4.67-2.4,4.4-4q-4.31,1.41-10.75-.36a45,45,0,0,1-12.17-5.43A40.21,40.21,0,0,1,335,336a28.77,28.77,0,0,1-4.12-4.45,31.17,31.17,0,0,1-5.29-17.4q-.22-10,6.37-20a71.35,71.35,0,0,1,22-22.27,106.37,106.37,0,0,1,28.59-12.7,168.08,168.08,0,0,1,31.79-5.66,304.07,304.07,0,0,1,30.56-1h.94c1.32,0,2.71.11,4.17.18,11.24,1,32.49,7.13,32.49,45.68V719.43c0,45.86-30.08,45.86-37.6,45.86v9.78H571.19v-9.78c-7.52,0-37.6,0-37.6-45.86v-421C533.59,252.51,563.67,252.51,571.19,252.51Z"/><path class="cls-1" d="M752.35,383.83h42.57V388c-3.23,0-16.13,0-16.13,19.67V612.13h-3.58L636.27,409.68V588.27c0,19.67,12.76,19.67,16.12,19.67v4.19H609.82v-4.19c3.23,0,16.13,0,16.13-19.67V407.37C626,388,613.08,388,609.83,388v-4.19h21.75a28.73,28.73,0,0,1,23.78,12.61L768.47,563.29V407.69c0-19.67-12.89-19.67-16.12-19.67Z"/><path class="cls-1" d="M956.79,383.83h42.56V388c-3.22,0-16.12,0-16.12,19.67V612.13h-3.58L840.7,409.68V588.27c0,19.67,12.77,19.67,16.12,19.67v4.19H814.26v-4.19c3.22,0,16.12,0,16.12-19.67V407.37c0-19.35-12.87-19.35-16.12-19.35v-4.19H836a28.72,28.72,0,0,1,23.78,12.61L972.91,563.29V407.69C972.91,388,960,388,956.79,388Z"/><path class="cls-1" d="M1166.21,383.83h49V388c-3.23,0-16.38.23-23.28,20.06l-71.14,204.05h-21l-67.65-204.08c-6-18.09-19.89-20-23.12-20v-4.19h19.36a28.72,28.72,0,0,1,27.35,19.94l61,190,65-186.43c4.48-12.84-1.35-19.25-15.54-19.25Z"/><path class="cls-1" d="M1225.07,612.13v-4.19c3.22,0,16.12,0,16.12-19.67V407.69c0-19.67-12.9-19.67-16.12-19.67v-4.19h54.17V388c-3.23,0-16.13,0-16.13,19.67V588.27c0,19.67,12.9,19.67,16.13,19.67v4.19Z"/><path class="cls-1" d="M1294.07,612.12v-4.19c3.22,0,16.12,0,16.12-19.67V407.68c0-19.67-12.9-19.67-16.12-19.67v-4.19h141l7,38.05h-4.19c-2-10.54-5.86-29-26.4-29h-79.33v65.46h69.65c21.09,0,19.61-9.58,19.67-16.12h4.19v41.27h-4.19c-.09-6.51,1.39-16.12-19.67-16.12h-69.65V603.1h69.65c31.41,0,37.11-45,39.14-71.26h4.19l-6.67,80.29Z"/><path class="cls-1" d="M973.84,678.85a14.53,14.53,0,0,1-2.13,7.88,14.14,14.14,0,0,1-6.06,5.29,21.85,21.85,0,0,1-9.51,1.9,42.65,42.65,0,0,1-9.31-1.09,30.67,30.67,0,0,1-9.62-4.09l2.32-5.72a33.84,33.84,0,0,0,9,3.67,34.25,34.25,0,0,0,7.57,1,12.09,12.09,0,0,0,7.81-2.32,8.28,8.28,0,0,0,.85-11.67,15.45,15.45,0,0,0-6.42-3.79l-7-2.24q-6.65-2.24-9.93-5.79a12.3,12.3,0,0,1-3.28-8.66,14.74,14.74,0,0,1,2.05-7.84,13.59,13.59,0,0,1,5.91-5.22,21.13,21.13,0,0,1,9.19-1.85,40.23,40.23,0,0,1,8.85,1,28.61,28.61,0,0,1,9,3.83l-2.32,5.72a28.18,28.18,0,0,0-8.3-3.48,33.62,33.62,0,0,0-7.15-.85,11.89,11.89,0,0,0-7.49,2.16,7.21,7.21,0,0,0-2.79,6,6.7,6.7,0,0,0,1.94,4.75,14.61,14.61,0,0,0,6.1,3.44l7,2.32q7.11,2.4,10.44,6.14A13.78,13.78,0,0,1,973.84,678.85Z"/><path class="cls-1" d="M1024.22,645.31h-17.93v47.83h-6.8V645.31H981.57l.85-6.26h41Z"/><path class="cls-1" d="M1031.64,693.14h-7l21.79-54.09h6.1l22,54.09H1067L1061.7,680h-24.65Zm7.57-18.93h20.25l-10.13-26.35Z"/><path class="cls-1" d="M1120.58,639.05l-20.25,32.69v21.4h-6.8V671.89l-20.47-32.84h7.88l16,26,16-26Z"/><path class="cls-1" d="M808,745.93a83.55,83.55,0,0,1,0,82.91,83.61,83.61,0,0,1,0-82.91m0-13.15A90.7,90.7,0,0,0,808,842a90.7,90.7,0,0,0,0-109.21Z"/><path class="cls-1" d="M905.81,843.72a83.53,83.53,0,0,1-82.9,0,83.6,83.6,0,0,1,82.9,0m13.15,0a90.68,90.68,0,0,0-109.2,0,90.68,90.68,0,0,0,109.2,0Z"/><path class="cls-1" d="M880.9,770.84c-3.48,12.26-3.48,22.18,0,34.44-12.26-3.48-22.18-3.48-34.44,0,3.48-12.26,3.48-22.18,0-34.44,12.26,3.48,22.18,3.48,34.44,0m12-12c-23.62,9.78-34.84,9.78-58.46,0,9.79,23.62,9.79,34.84,0,58.46,23.62-9.78,34.84-9.78,58.46,0-9.78-23.62-9.78-34.84,0-58.46Z"/></g></g></svg>